<?xml version="1.0" standalone="no"?>
<!DOCTYPE svg PUBLIC "-//W3C//DTD SVG 20010904//EN"
 "http://www.w3.org/TR/2001/REC-SVG-20010904/DTD/svg10.dtd">
<svg version="1.0" xmlns="http://www.w3.org/2000/svg"
 width="512.000000pt" height="512.000000pt" viewBox="0 0 512.000000 512.000000"
 preserveAspectRatio="xMidYMid meet">
<metadata>
Created by potrace 1.14, written by Peter Selinger 2001-2017
</metadata>
<g transform="translate(0.000000,512.000000) scale(0.100000,-0.100000)"
fill="#000000" stroke="none">
<path d="M2810 4108 c0 -6 -3 -8 -7 -5 -3 4 -12 2 -20 -4 -7 -6 -13 -8 -13 -4
0 10 -34 -33 -50 -65 -15 -28 -21 -118 -9 -126 10 -6 1 -32 -20 -57 -9 -10
-23 -27 -31 -37 -8 -9 -26 -32 -40 -51 -14 -18 -33 -41 -42 -51 -10 -10 -16
-18 -13 -18 3 0 -4 -10 -16 -22 -11 -13 -35 -42 -52 -65 -17 -24 -34 -43 -39
-43 -4 0 -8 -6 -8 -12 0 -7 -16 -30 -35 -51 -19 -21 -35 -42 -35 -47 0 -5 -8
-14 -17 -19 -10 -6 -14 -11 -10 -11 4 0 -8 -16 -28 -35 -19 -20 -34 -37 -32
-39 1 -2 -11 -19 -28 -38 -16 -18 -30 -35 -30 -38 0 -3 -6 -12 -13 -20 -42
-49 -62 -76 -62 -83 0 -5 -5 -5 -10 -2 -6 4 -9 2 -8 -3 2 -5 -27 -48 -65 -96
-37 -47 -82 -110 -99 -139 -18 -28 -36 -55 -41 -58 -5 -3 -9 -10 -9 -15 -2
-23 -11 -44 -19 -44 -5 0 -8 -3 -8 -7 1 -5 0 -10 -1 -13 -1 -3 -3 -14 -5 -25
-2 -11 -8 -21 -14 -23 -5 -2 -7 -10 -4 -18 3 -8 0 -14 -6 -14 -6 0 -8 -7 -5
-15 4 -8 1 -15 -6 -15 -6 0 -8 -4 -5 -10 3 -5 -1 -24 -10 -41 -10 -18 -12 -28
-5 -24 9 6 9 2 1 -14 -7 -12 -10 -25 -7 -30 3 -5 0 -13 -7 -19 -7 -6 -12 -31
-11 -61 0 -28 -2 -51 -6 -51 -3 0 -5 -15 -5 -32 1 -21 -6 -39 -18 -50 -11 -10
-16 -18 -11 -18 5 0 -2 -7 -14 -16 -12 -8 -20 -20 -17 -25 4 -5 2 -9 -4 -9 -5
0 -18 -13 -27 -29 -10 -17 -21 -28 -26 -25 -5 3 -7 2 -6 -3 4 -11 -123 -173
-135 -173 -4 0 -5 -5 -2 -10 3 -5 2 -10 -4 -10 -5 0 -13 -9 -16 -20 -4 -11
-11 -18 -16 -15 -5 4 -9 0 -9 -7 0 -9 -3 -9 -8 -2 -12 17 -85 10 -110 -11 -55
-46 -74 -150 -41 -220 18 -38 28 -49 64 -67 28 -14 39 -15 74 -7 38 10 99 87
86 109 -3 5 -1 11 4 14 5 3 7 23 4 43 -2 21 -5 43 -5 50 -2 18 45 82 56 76 5
-3 6 -2 3 4 -3 5 9 26 28 46 19 21 32 37 27 37 -4 0 2 7 12 15 11 8 17 15 13
15 -4 0 6 13 22 29 16 16 28 31 25 33 -2 3 7 15 21 28 14 13 27 21 30 18 3 -3
7 -29 9 -59 3 -30 5 -54 6 -54 1 0 4 -13 6 -30 3 -16 7 -37 11 -45 3 -8 7 -24
7 -35 1 -11 6 -29 12 -40 6 -11 9 -26 6 -34 -3 -9 0 -11 8 -6 8 5 11 4 6 -3
-7 -11 12 -62 27 -73 5 -3 8 -10 8 -15 -1 -17 11 -49 27 -66 8 -10 12 -18 9
-18 -6 0 25 -51 56 -92 6 -9 19 -27 27 -39 14 -21 125 -133 152 -154 7 -5 21
-16 31 -24 16 -13 21 -12 43 12 14 15 21 27 17 27 -4 0 -1 5 7 10 13 8 10 14
-15 34 -16 14 -37 31 -47 39 -9 9 -19 13 -22 10 -3 -4 -6 1 -6 10 0 10 -6 17
-14 17 -7 0 -21 10 -29 23 -8 12 -31 39 -50 61 -18 21 -42 55 -53 75 -10 20
-23 39 -29 43 -5 4 -10 11 -10 15 -1 4 -6 18 -13 29 -6 12 -8 24 -5 28 3 3 1
6 -5 6 -7 0 -12 8 -12 18 0 10 -3 22 -7 26 -5 4 -8 11 -9 14 0 4 -6 19 -12 34
-6 15 -13 38 -15 50 -2 13 -7 30 -10 38 -4 8 -9 35 -11 60 -3 25 -6 45 -7 45
-1 0 -3 16 -4 35 -2 19 -6 59 -9 88 -3 35 -1 52 6 52 6 0 8 3 5 7 -4 3 -2 12
4 20 6 7 9 13 5 13 -3 0 8 13 24 28 16 16 28 31 26 33 -2 2 9 18 25 34 l29 30
0 -33 c0 -18 -3 -31 -7 -29 -10 6 -9 -205 1 -221 4 -7 2 -12 -6 -12 -10 0 -10
-2 -1 -8 7 -4 13 -24 15 -45 1 -20 5 -37 8 -37 3 0 6 -8 7 -17 3 -42 13 -78
22 -81 6 -2 8 -9 5 -17 -3 -7 -1 -16 5 -20 6 -3 11 -15 11 -26 0 -10 5 -19 10
-19 6 0 10 -6 10 -13 0 -7 15 -37 34 -67 19 -30 32 -59 29 -64 -3 -5 -2 -6 4
-3 5 3 20 -8 33 -26 13 -18 35 -41 49 -52 13 -10 35 -29 48 -41 13 -12 37 -27
53 -34 17 -7 30 -16 30 -21 0 -5 7 -5 17 -2 12 5 14 3 8 -7 -6 -10 -4 -12 9
-7 10 4 24 -1 36 -13 11 -11 20 -16 20 -11 0 9 59 -1 80 -14 9 -6 11 -4 5 4
-5 10 -3 11 11 4 11 -5 30 -7 44 -6 90 9 126 15 137 25 7 6 13 7 13 4 0 -13
134 65 166 95 17 16 33 26 37 23 4 -4 7 -3 7 3 0 6 16 28 35 49 19 22 35 42
35 45 0 3 10 17 23 31 37 42 67 82 67 91 0 4 5 5 10 2 6 -3 10 -1 10 5 0 17
128 180 132 168 7 -19 -4 -68 -12 -63 -5 3 -7 -6 -4 -20 3 -15 0 -25 -7 -25
-7 0 -10 -3 -6 -6 3 -4 0 -22 -8 -40 -8 -19 -15 -38 -16 -42 -5 -23 -35 -82
-42 -82 -4 0 -5 -4 -2 -10 3 -5 1 -10 -5 -10 -6 0 -9 -4 -6 -8 3 -5 -4 -19
-15 -30 -11 -12 -17 -22 -14 -22 3 0 -6 -12 -20 -27 -14 -15 -25 -31 -25 -34
0 -3 -10 -17 -22 -31 -13 -14 -34 -40 -48 -58 -14 -18 -31 -38 -37 -45 -7 -8
-13 -17 -13 -21 0 -3 -15 -23 -32 -44 -68 -77 -88 -102 -88 -111 0 -5 -5 -9
-10 -9 -6 0 -9 -3 -8 -7 2 -5 -9 -20 -22 -34 -14 -14 -34 -38 -45 -54 -11 -16
-26 -34 -33 -42 -7 -7 -11 -13 -7 -13 3 0 -6 -11 -21 -25 -15 -14 -24 -25 -20
-25 4 0 -3 -11 -16 -24 -13 -13 -34 -39 -48 -57 -14 -18 -33 -41 -42 -51 -10
-10 -16 -18 -13 -18 7 0 -13 -25 -42 -52 -12 -12 -20 -24 -18 -28 8 -13 -27
-22 -80 -22 -40 0 -55 -6 -75 -25 -14 -14 -25 -28 -25 -32 0 -3 -4 -12 -8 -18
-18 -28 -27 -99 -16 -123 28 -64 36 -77 54 -90 11 -8 23 -14 28 -12 4 1 7 -2
7 -6 0 -14 79 -9 85 6 3 7 9 10 15 7 5 -3 15 7 22 22 7 15 15 30 19 33 18 16
30 102 16 117 -11 10 -8 43 4 43 5 0 8 4 4 9 -3 6 3 14 12 20 10 6 14 11 9 11
-5 0 3 11 18 25 14 13 26 29 26 34 0 5 10 17 23 26 12 8 22 19 22 23 0 4 4 6
8 4 5 -1 6 2 3 7 -4 5 0 15 7 23 7 7 46 56 87 108 41 52 78 97 82 98 5 2 8 10
8 18 0 8 5 14 10 14 6 0 10 7 10 16 0 8 3 13 8 11 4 -3 18 12 31 34 14 21 28
36 33 33 5 -3 7 -2 6 3 -3 7 38 66 67 99 34 38 54 64 50 64 -3 0 8 14 25 31
16 17 27 36 23 42 -3 5 -2 7 4 4 10 -7 116 147 116 169 0 7 4 11 9 8 4 -3 9 0
9 5 3 20 30 89 49 123 6 10 10 26 10 36 0 10 3 22 7 26 4 3 8 14 10 24 9 59
16 88 23 97 3 6 6 29 6 53 -1 23 2 42 5 42 4 0 6 16 4 35 -1 22 5 42 17 54 10
11 18 25 18 30 0 5 10 17 22 25 12 9 19 16 14 16 -5 0 3 11 18 25 14 13 26 26
26 29 0 9 71 101 81 104 5 2 9 8 9 14 0 10 14 27 67 84 12 13 19 24 16 24 -4
0 3 9 15 20 20 19 24 19 57 6 20 -9 33 -11 30 -6 -3 6 -3 10 2 11 40 4 73 26
73 48 0 6 4 11 9 11 11 0 24 43 26 90 2 39 -13 91 -29 102 -6 4 -7 8 -2 8 5 0
-6 13 -23 28 -25 21 -42 28 -71 26 -41 -1 -86 -28 -95 -56 -4 -10 -10 -18 -14
-18 -9 0 -11 -16 -12 -103 0 -58 -3 -71 -24 -92 -14 -13 -25 -26 -25 -29 0 -6
-26 -39 -52 -68 -10 -10 -16 -18 -13 -18 3 0 -3 -8 -12 -18 -29 -31 -53 -62
-72 -93 -10 -16 -21 -26 -24 -22 -4 3 -7 -2 -7 -11 0 -10 -6 -16 -12 -13 -7 2
-13 8 -13 13 0 5 -4 15 -9 23 -6 10 -5 12 2 7 7 -4 12 -3 12 3 0 5 -3 12 -8
15 -4 2 -7 22 -7 43 0 21 -3 40 -7 43 -4 3 -9 21 -12 40 -5 42 -30 123 -53
176 -9 22 -16 42 -15 47 1 4 -3 7 -8 7 -5 0 -9 3 -8 8 3 9 -73 146 -84 150 -4
2 -8 7 -8 12 0 10 -64 84 -104 119 -16 14 -38 34 -48 44 -10 9 -23 17 -29 17
-5 0 -8 4 -5 9 3 4 -6 13 -20 20 -14 6 -23 7 -19 2 3 -5 -4 -13 -16 -16 -11
-4 -18 -9 -15 -12 3 -3 -2 -12 -10 -20 -16 -17 -13 -40 5 -35 6 1 14 -5 18
-14 3 -8 17 -20 30 -25 15 -6 22 -14 17 -21 -4 -7 -4 -10 1 -6 16 15 175 -167
175 -201 0 -6 4 -11 9 -11 9 0 37 -60 33 -72 -1 -5 3 -8 8 -8 6 0 10 -9 10
-20 0 -11 5 -20 10 -20 6 0 10 -10 10 -23 0 -13 4 -27 9 -32 6 -6 12 -24 15
-42 4 -18 10 -42 14 -55 5 -13 7 -33 6 -45 0 -13 2 -23 6 -23 4 0 7 -12 8 -27
0 -16 1 -30 2 -33 1 -3 4 -38 6 -79 4 -76 -6 -103 -56 -151 -8 -8 -20 -24 -26
-35 -6 -11 -19 -22 -29 -23 -12 -3 -15 0 -9 10 9 15 14 247 6 263 -3 5 -7 25
-9 44 -2 19 -9 42 -16 50 -10 12 -9 13 2 6 11 -6 12 -5 5 6 -5 8 -9 16 -9 19
-4 22 -30 97 -37 105 -4 5 -8 17 -8 27 0 10 -4 18 -9 18 -7 0 -22 36 -20 49 0
2 -4 7 -9 10 -6 3 -12 12 -14 20 -9 38 -182 210 -219 219 -8 2 -21 10 -30 18
-9 8 -18 12 -21 9 -3 -3 -18 1 -33 9 -16 8 -32 13 -37 10 -4 -3 -8 -1 -8 4 0
11 -5 11 -115 11 -127 1 -125 1 -125 -10 0 -5 -6 -9 -12 -7 -17 4 -74 -20
-123 -51 -22 -14 -43 -24 -47 -23 -5 1 -8 -5 -8 -13 0 -8 -5 -15 -12 -15 -13
0 -87 -78 -80 -85 3 -3 -2 -5 -12 -5 -9 0 -14 -4 -11 -10 3 -5 1 -10 -4 -10
-6 0 -11 -4 -11 -9 0 -5 -12 -22 -27 -38 -16 -16 -35 -39 -43 -52 -21 -33 -63
-85 -72 -89 -5 -2 -8 -10 -8 -18 0 -9 -4 -13 -9 -9 -5 3 -12 -4 -16 -15 -3
-11 -11 -20 -16 -20 -6 0 -7 -4 -4 -10 3 -5 2 -10 -4 -10 -6 0 -17 -12 -25
-27 -19 -35 -20 -14 -4 59 6 29 11 56 10 61 -1 4 3 7 8 7 6 0 10 8 10 19 0 24
86 197 111 222 10 10 17 19 14 19 -7 0 2 12 56 73 23 26 38 47 33 47 -5 0 3
11 18 24 15 12 25 26 21 30 -3 3 -2 6 3 6 5 0 38 38 73 85 36 47 69 85 73 85
5 0 6 5 3 10 -3 6 1 13 9 16 9 3 16 12 16 19 0 7 4 15 9 17 5 2 43 48 86 103
43 55 82 102 86 103 5 2 9 10 9 18 0 8 3 14 8 14 4 0 18 16 31 35 13 19 33 45
45 58 41 46 66 81 66 94 0 7 3 12 8 10 4 -1 9 3 11 8 8 21 38 31 83 30 30 -2
52 3 59 11 6 8 18 14 25 14 8 0 13 3 12 8 -2 12 14 42 21 38 3 -2 8 10 9 27
15 129 -15 192 -100 215 -27 7 -38 7 -38 0z m70 -103 c16 -21 22 -95 8 -95 -4
0 -8 -7 -8 -16 0 -8 -4 -13 -9 -9 -6 3 -14 -2 -19 -11 -8 -15 -12 -15 -46 1
-24 11 -36 25 -37 39 -1 11 -3 32 -4 45 -2 25 3 35 39 71 15 15 22 17 40 7 11
-7 28 -21 36 -32z m-358 -1062 c-6 -2 -10 -9 -6 -14 3 -5 0 -9 -6 -9 -6 0 -9
-4 -6 -9 4 -5 3 -11 -1 -13 -5 -1 -28 -28 -53 -58 -25 -30 -49 -58 -55 -62 -5
-4 -6 -8 -2 -8 4 0 -6 -13 -22 -29 -16 -16 -28 -31 -25 -33 2 -3 -7 -15 -21
-28 -14 -13 -25 -28 -25 -32 0 -5 -6 -16 -12 -23 -30 -33 -38 -45 -32 -45 3 0
-1 -11 -10 -25 -9 -14 -14 -25 -12 -25 3 0 -1 -12 -9 -27 -8 -15 -12 -30 -9
-35 3 -4 1 -8 -3 -8 -11 0 -13 -19 -18 -160 -2 -69 1 -120 7 -127 6 -7 8 -13
5 -13 -7 0 26 -100 49 -147 8 -18 19 -33 25 -33 6 0 7 -4 4 -10 -3 -5 -1 -10
5 -10 7 0 9 -7 6 -17 -4 -10 -4 -14 -1 -11 4 4 20 -7 36 -23 43 -44 104 -96
95 -80 -5 8 3 6 20 -5 36 -24 96 -45 87 -31 -4 6 -1 7 8 1 8 -5 31 -10 52 -10
33 -1 69 -14 39 -14 -7 0 -12 -6 -12 -14 0 -8 -11 -23 -25 -34 -13 -11 -23
-21 -21 -23 2 -2 -9 -17 -25 -32 -16 -16 -29 -23 -29 -16 0 9 -3 9 -14 0 -11
-9 -15 -9 -18 0 -2 7 -17 13 -33 15 -16 2 -31 8 -33 14 -2 5 -11 10 -21 10 -9
0 -27 9 -39 20 -12 11 -24 20 -28 20 -14 0 -134 132 -128 141 3 5 1 9 -3 9
-11 0 -66 100 -56 100 5 0 3 4 -3 8 -17 12 -50 131 -58 214 -3 20 -7 42 -11
48 -3 5 -1 10 5 10 6 0 8 5 3 13 -12 19 -12 37 -1 37 6 0 5 6 -2 15 -7 8 -8
15 -3 15 5 0 9 10 10 23 2 86 4 108 11 104 4 -3 8 7 9 21 1 25 9 64 13 70 2 1
3 5 4 10 1 4 7 16 13 27 6 11 12 22 12 25 11 41 15 49 22 44 5 -3 9 2 9 11 0
17 34 70 62 96 10 9 16 18 14 20 -2 2 10 16 25 31 16 15 29 24 29 21 0 -4 9 2
20 13 25 24 49 45 52 44 2 -1 17 4 33 11 17 7 33 13 38 14 4 2 9 4 12 5 3 1 9
3 14 4 5 0 13 4 17 9 4 4 14 7 23 6 11 0 12 -2 3 -6z m158 -1 c0 -5 10 -8 23
-7 12 1 28 -5 35 -14 8 -9 10 -10 7 -3 -6 11 -3 11 16 0 13 -7 26 -16 29 -19
7 -8 44 -22 53 -21 4 1 7 -5 7 -13 0 -8 4 -15 9 -15 11 0 105 -90 94 -90 -4 0
-3 -4 2 -8 17 -11 57 -72 49 -72 -4 0 1 -7 12 -15 10 -8 15 -15 10 -15 -4 0
-2 -10 6 -22 13 -21 36 -80 42 -111 2 -7 6 -24 10 -39 5 -15 9 -44 11 -65 2
-21 4 -38 6 -38 1 0 2 -35 3 -77 1 -47 -3 -78 -9 -78 -5 0 -4 -4 4 -9 7 -5 9
-11 4 -14 -5 -3 -10 -22 -11 -43 -2 -20 -7 -45 -13 -56 -5 -10 -7 -23 -4 -28
3 -6 2 -10 -2 -10 -5 0 -9 -10 -10 -22 -1 -11 -7 -24 -13 -28 -7 -4 -11 -11
-11 -16 1 -17 -12 -49 -30 -75 -10 -14 -16 -29 -12 -32 3 -4 -2 -9 -11 -13 -9
-3 -14 -10 -11 -14 3 -4 -2 -11 -11 -14 -8 -3 -13 -10 -9 -15 3 -5 -4 -12 -15
-16 -11 -3 -20 -13 -20 -21 0 -8 -4 -12 -10 -9 -5 3 -10 1 -10 -5 0 -14 -40
-49 -57 -50 -7 0 -13 -4 -13 -8 0 -11 -56 -43 -64 -35 -3 3 -6 1 -6 -5 0 -7
-9 -12 -19 -12 -11 0 -22 -4 -26 -9 -8 -14 -45 -9 -45 6 0 7 5 13 10 13 6 0
10 5 10 11 0 7 8 19 18 28 9 9 23 25 30 36 38 60 52 79 52 70 0 -5 8 4 19 20
10 17 30 42 44 58 14 15 24 27 21 27 -2 0 9 19 26 42 16 22 30 47 30 55 0 7 5
13 11 13 5 0 7 5 4 10 -3 6 -2 10 2 10 5 0 10 12 11 26 1 15 7 33 13 40 6 7 8
18 4 24 -4 6 -2 16 3 23 13 16 13 216 0 240 -8 15 -7 18 3 12 8 -6 10 -4 3 6
-4 8 -9 19 -10 24 -5 26 -49 132 -63 151 -9 12 -23 32 -31 44 -25 37 -67 80
-79 80 -6 0 -11 3 -11 8 0 4 -12 16 -27 26 -14 11 -23 14 -19 8 4 -7 -9 -3
-28 9 -20 12 -36 18 -36 14 0 -4 -6 -3 -12 2 -7 6 -38 9 -70 9 -62 -1 -62 2
-16 56 13 15 34 41 47 57 22 29 51 42 51 23z m1112 -101 c34 -39 27 -131 -10
-131 -8 0 -12 -6 -9 -14 4 -11 -1 -13 -21 -10 -32 5 -65 41 -58 61 3 8 2 11
-3 8 -6 -3 -9 8 -9 25 1 16 5 30 10 30 4 0 8 7 8 15 0 8 5 15 11 15 5 0 7 5 4
10 -12 19 60 11 77 -9z m-1123 -150 c11 -7 21 -9 21 -6 0 4 15 -4 33 -16 48
-33 127 -120 127 -141 0 -10 4 -18 8 -18 8 0 31 -59 39 -100 12 -58 14 -182 3
-195 -6 -8 -9 -18 -6 -23 3 -4 -1 -26 -9 -48 -17 -49 -54 -132 -55 -121 0 12
-30 -20 -30 -32 0 -6 -3 -11 -7 -11 -5 0 -23 -14 -41 -31 -18 -16 -41 -31 -52
-32 -11 -1 -20 -5 -20 -10 0 -4 -4 -5 -10 -2 -5 3 -10 2 -10 -4 0 -5 -8 -8
-17 -6 -10 1 -26 -2 -37 -7 -13 -7 -16 -7 -12 1 4 6 2 11 -3 11 -6 0 -11 -6
-11 -12 0 -9 -3 -9 -8 -3 -4 6 -17 12 -29 12 -31 2 -113 42 -113 55 0 6 -3 9
-6 6 -8 -8 -74 63 -74 79 0 7 -4 13 -9 13 -10 0 -53 112 -57 149 -1 14 -3 26
-4 26 -2 0 -4 33 -6 73 -1 39 1 72 5 72 4 0 6 14 5 30 -1 17 2 33 7 36 5 3 9
16 9 29 0 13 3 25 8 27 4 2 16 20 27 42 19 38 95 126 95 110 0 -4 7 1 15 12 8
10 15 15 15 9 0 -5 4 -4 9 4 10 15 18 18 86 30 52 8 87 6 114 -8z m521 -565
c0 -3 -4 -8 -10 -11 -5 -3 -10 -1 -10 4 0 6 5 11 10 11 6 0 10 -2 10 -4z
m-1697 -227 c20 -21 31 -89 15 -89 -5 0 -7 -4 -4 -9 8 -12 -36 -48 -59 -48
-65 1 -84 121 -26 163 21 16 50 9 74 -17z m982 -1127 c-2 -7 0 -10 5 -7 6 4
10 -10 10 -34 0 -23 -5 -41 -11 -41 -5 0 -8 -3 -6 -7 8 -12 -16 -28 -46 -31
-39 -5 -67 29 -67 82 0 44 30 83 52 70 6 -4 8 -3 4 4 -3 5 -1 12 6 14 17 6 60
-33 53 -50z"/>
<path d="M3200 3917 c0 -6 -3 -8 -6 -4 -8 8 -65 -44 -59 -54 3 -4 1 -9 -4 -11
-5 -1 -11 -14 -13 -28 -1 -14 -7 -28 -13 -32 -7 -5 -6 -8 1 -8 5 0 9 -13 8
-30 -1 -16 2 -30 7 -30 5 0 3 -11 -3 -25 -6 -14 -16 -25 -21 -25 -6 0 -8 -3
-4 -6 3 -3 -4 -16 -16 -29 -12 -12 -29 -32 -37 -45 -46 -67 -72 -90 -99 -83
-14 3 -28 9 -31 12 -6 7 -28 13 -47 14 -7 0 -13 5 -13 10 0 5 -6 7 -14 4 -8
-3 -17 -3 -20 1 -8 7 -29 12 -69 17 -16 2 -31 5 -34 8 -8 9 -83 -77 -83 -96 0
-2 25 -4 57 -5 34 0 59 -6 64 -14 7 -10 9 -10 9 2 0 9 3 11 8 5 7 -10 23 -16
54 -18 10 -1 18 -5 18 -10 0 -4 6 -7 13 -6 44 5 50 -22 14 -61 -12 -14 -34
-41 -47 -60 -13 -19 -29 -39 -35 -45 -25 -23 -66 -87 -60 -93 4 -4 14 -7 23
-7 9 -1 28 -7 42 -14 14 -8 22 -10 18 -6 -6 6 20 40 70 91 7 8 10 14 7 14 -4
0 7 13 24 29 16 15 28 31 24 34 -3 4 2 9 11 13 9 3 16 13 16 20 0 8 7 17 16
21 19 7 84 -27 84 -45 0 -7 5 -10 10 -7 6 3 10 1 10 -4 0 -6 6 -11 13 -11 7 0
21 -11 31 -25 10 -13 23 -22 29 -18 5 3 7 1 4 -4 -4 -6 11 -26 33 -44 22 -19
40 -39 40 -44 0 -6 9 -16 20 -23 11 -7 20 -19 20 -27 0 -8 4 -15 8 -15 19 0
151 -255 152 -292 0 -10 5 -18 10 -18 6 0 10 -13 10 -30 0 -16 4 -30 9 -30 5
0 9 -12 9 -27 0 -15 5 -29 11 -31 6 -2 9 -9 5 -15 -3 -7 1 -4 9 5 8 10 18 14
22 10 5 -4 5 -2 2 5 -4 6 -1 17 6 25 18 18 28 48 17 48 -6 0 -10 11 -10 24 0
14 -5 28 -10 31 -6 4 -8 10 -5 15 3 5 0 12 -6 15 -5 4 -8 13 -5 21 3 7 -2 20
-10 29 -9 8 -12 15 -8 15 3 0 1 7 -6 15 -7 8 -9 15 -5 15 5 0 0 10 -11 22 -10
12 -13 18 -6 14 7 -4 -1 13 -18 37 -16 25 -30 49 -30 55 0 5 -9 21 -21 36 -11
14 -17 26 -13 26 4 0 -3 9 -16 20 -13 11 -20 20 -17 20 6 0 -13 27 -40 55 -7
8 -13 16 -13 20 0 10 -120 125 -131 125 -5 0 -9 7 -9 15 0 8 -7 15 -15 15 -9
0 -18 7 -22 16 -3 8 -11 13 -18 10 -8 -3 -16 2 -19 10 -3 9 -9 13 -14 10 -4
-2 -9 4 -9 15 -1 10 2 19 8 19 5 0 9 7 9 15 0 9 7 18 15 21 8 4 13 10 10 14
-3 5 4 11 15 15 11 4 18 10 15 14 -2 5 7 21 22 37 22 24 35 29 72 29 25 1 52
3 60 5 19 7 51 38 51 50 0 6 4 10 10 10 5 0 7 7 4 15 -4 8 -1 15 7 15 7 0 9 3
6 6 -3 4 -2 16 4 27 8 15 8 18 -1 12 -9 -6 -9 -3 -1 13 7 14 8 23 1 27 -5 3
-10 15 -10 26 0 24 -44 92 -53 82 -4 -3 -7 -1 -7 6 0 7 -4 9 -10 6 -5 -3 -10
-2 -10 3 0 6 -16 10 -35 10 -19 0 -35 -5 -35 -11z m76 -72 c26 -25 37 -125 13
-125 -6 0 -7 -4 -4 -10 3 -5 -1 -10 -10 -10 -9 0 -14 -4 -11 -9 3 -5 -10 -8
-29 -8 -19 1 -32 3 -30 5 2 3 -4 12 -15 21 -22 19 -32 92 -12 99 7 2 10 8 7
12 -15 25 67 47 91 25z"/>
<path d="M2276 3494 c-5 -12 -10 -13 -19 -6 -9 8 -19 4 -36 -14 -13 -13 -27
-21 -32 -18 -5 3 -9 0 -9 -6 0 -6 -10 -14 -22 -19 -24 -10 -73 -48 -117 -91
-14 -14 -29 -24 -33 -23 -4 2 -10 -6 -13 -17 -4 -11 -13 -20 -21 -20 -8 0 -13
-4 -10 -8 3 -5 -10 -25 -29 -45 -19 -21 -32 -37 -29 -37 3 0 -6 -11 -20 -24
-15 -13 -26 -28 -26 -34 0 -6 -4 -12 -8 -14 -4 -1 -30 -32 -57 -68 -27 -36
-56 -72 -64 -81 -9 -9 -25 -29 -36 -44 -11 -16 -26 -34 -33 -42 -7 -7 -11 -13
-7 -13 3 0 -8 -13 -24 -29 -16 -16 -27 -32 -24 -35 4 -3 1 -6 -6 -6 -7 0 -9
-4 -6 -10 3 -5 -2 -10 -11 -10 -10 0 -15 -3 -11 -6 3 -3 -2 -14 -11 -23 -27
-29 -50 -58 -78 -101 -15 -22 -31 -40 -35 -40 -5 0 -9 -4 -9 -10 0 -5 -8 -18
-17 -28 -32 -33 -63 -72 -64 -80 0 -4 -7 -11 -15 -15 -8 -5 -12 -12 -10 -16 3
-4 -6 -15 -20 -25 -13 -11 -24 -25 -24 -32 0 -7 -12 -22 -26 -33 -15 -12 -23
-21 -18 -21 5 0 2 -6 -6 -13 -9 -7 -37 -40 -64 -75 -61 -79 -96 -118 -96 -104
0 5 -13 9 -30 8 -17 -1 -30 1 -30 6 0 4 -8 1 -17 -7 -10 -8 -21 -14 -25 -13
-8 4 -42 -40 -53 -67 -11 -28 -14 -145 -4 -145 5 0 9 -7 9 -15 0 -8 5 -15 10
-15 6 0 10 -6 10 -13 0 -20 40 -39 92 -42 27 -1 47 0 44 2 -3 3 8 16 24 29 37
32 48 66 45 142 -2 53 2 66 21 87 13 14 20 25 16 25 -4 0 1 5 11 11 9 5 17 15
17 21 0 6 11 21 25 34 14 13 25 26 25 30 0 4 11 17 25 30 14 13 25 26 24 29
-1 6 53 76 79 102 7 7 10 13 5 13 -4 0 -3 4 3 8 6 4 29 29 49 56 50 65 51 67
79 99 13 15 34 43 47 62 13 19 27 35 32 35 4 0 7 6 7 14 0 8 9 21 20 29 11 8
18 16 16 18 -2 2 7 14 19 27 16 17 22 19 22 8 0 -9 -4 -16 -9 -16 -5 0 -6 -4
-3 -10 6 -10 -10 -83 -26 -112 -6 -13 -5 -18 3 -18 8 0 9 -3 3 -8 -5 -4 -11
-16 -12 -27 -1 -11 -5 -42 -8 -70 -4 -27 -8 -84 -9 -126 -2 -70 0 -76 17 -71
14 4 16 7 5 13 -10 7 -10 9 2 9 17 0 63 66 55 80 -3 4 1 11 7 13 10 4 10 6 0
6 -8 1 -10 6 -6 13 5 7 8 32 9 55 0 23 4 45 8 49 12 12 8 26 -5 18 -7 -4 -6 1
3 12 9 10 14 25 12 32 -3 7 1 19 7 27 10 12 10 15 -1 15 -10 0 -11 2 -2 8 6 4
13 21 16 37 3 17 14 55 25 87 11 31 18 59 15 62 -4 3 -1 6 5 6 7 0 12 6 12 13
0 7 9 29 19 49 11 19 17 39 14 42 -4 3 -1 6 5 6 7 0 12 7 12 15 0 8 5 15 10
15 6 0 9 3 8 8 -3 11 63 112 73 112 6 0 8 4 5 9 -3 5 1 12 10 15 9 4 14 9 11
12 -3 3 12 23 33 44 21 21 35 42 31 46 -3 4 2 4 12 1 11 -4 16 -3 12 3 -3 6 1
13 9 16 9 3 13 10 10 15 -3 5 -1 8 4 7 5 -2 25 11 45 29 19 17 38 29 41 26 3
-4 6 -2 6 3 0 5 10 21 23 36 52 61 57 69 57 76 0 4 9 14 20 22 11 8 20 20 20
27 0 19 -27 16 -34 -3z m-1251 -1395 c-4 -6 -1 -10 6 -8 36 4 50 -3 64 -38 12
-29 13 -38 3 -45 -10 -6 -10 -8 1 -8 11 0 11 -3 1 -15 -7 -8 -9 -15 -4 -15 5
-1 -1 -9 -13 -19 -12 -10 -20 -21 -17 -23 4 -5 -45 -3 -56 2 -3 1 -8 2 -11 2
-9 -2 -30 50 -30 74 -1 30 9 67 22 78 9 8 10 7 5 -4 -4 -8 1 -5 10 8 17 22 31
31 19 11z"/>
<path d="M2570 3302 c0 -4 -23 -6 -51 -5 -28 1 -49 -1 -45 -4 3 -3 -5 -14 -17
-24 -12 -10 -19 -18 -16 -19 4 0 -8 -17 -27 -37 -19 -20 -31 -39 -29 -42 10
-9 35 -9 35 0 0 6 5 7 10 4 6 -3 10 -2 10 3 0 5 11 8 25 7 14 -2 25 0 25 4 0
5 12 7 28 6 15 -1 42 2 60 6 17 4 32 3 32 -2 0 -5 9 -4 20 3 11 7 20 16 20 21
0 4 10 21 22 38 19 25 20 31 8 39 -8 5 -19 5 -26 0 -6 -6 -13 -8 -15 -6 -9 7
-69 15 -69 8z"/>
<path d="M4120 2749 c0 -5 -4 -8 -9 -5 -10 6 -63 -55 -69 -81 -2 -10 -6 -45
-7 -78 -4 -93 -4 -95 -20 -95 -8 0 -14 -4 -12 -8 2 -8 -25 -44 -85 -115 -15
-18 -30 -40 -34 -49 -3 -10 -9 -18 -13 -18 -4 0 -22 -20 -40 -45 -17 -24 -37
-50 -44 -57 -7 -7 -32 -40 -57 -73 -25 -33 -49 -65 -55 -71 -5 -6 -19 -23 -30
-39 -11 -15 -29 -37 -40 -49 -12 -11 -24 -29 -28 -39 -3 -9 -11 -17 -17 -17
-6 0 -9 -4 -6 -9 3 -5 0 -11 -8 -14 -9 -4 -13 0 -11 11 2 9 4 17 5 17 2 0 16
58 25 105 3 14 7 36 10 50 6 29 17 147 17 173 -1 11 4 15 11 10 9 -5 9 -3 0 8
-6 8 -10 31 -9 52 1 30 -2 37 -17 37 -10 0 -16 -4 -13 -9 3 -5 -6 -21 -21 -37
-18 -20 -27 -41 -28 -70 -1 -23 -6 -47 -10 -54 -5 -7 -8 -35 -8 -62 1 -26 -2
-48 -6 -48 -4 0 -7 -10 -6 -22 1 -13 -2 -33 -6 -46 -5 -12 -11 -35 -14 -50 -3
-15 -7 -32 -8 -38 -2 -7 -8 -18 -15 -26 -6 -8 -9 -17 -6 -21 6 -5 -1 -24 -47
-122 -12 -27 -22 -53 -21 -57 1 -3 -5 -12 -13 -18 -8 -7 -15 -19 -15 -26 0 -8
-4 -14 -10 -14 -5 0 -10 -6 -10 -13 0 -7 -9 -23 -20 -35 -11 -12 -20 -24 -20
-27 0 -6 -1 -7 -50 -65 -16 -19 -30 -38 -30 -42 0 -5 -8 -8 -17 -8 -9 0 -14
-3 -10 -6 8 -8 -18 -34 -33 -34 -6 0 -8 -4 -5 -10 3 -5 1 -10 -6 -10 -6 0 -19
-8 -28 -18 -9 -9 -28 -23 -43 -31 -15 -8 -25 -18 -22 -22 2 -4 -2 -11 -9 -16
-8 -4 -19 -18 -26 -31 -7 -12 -17 -20 -23 -16 -6 4 -8 3 -5 -3 4 -6 -4 -22
-18 -37 -13 -14 -21 -26 -17 -26 4 0 -1 -5 -11 -11 -9 -6 -15 -15 -11 -20 3
-6 12 -5 21 3 9 7 17 12 17 10 3 -9 56 19 56 30 0 10 2 10 9 0 7 -11 9 -11 14
2 4 9 13 16 20 16 8 0 22 9 32 20 10 11 21 18 24 16 4 -3 17 9 30 25 13 16 28
29 33 29 5 0 24 16 40 35 17 19 36 32 41 28 6 -3 7 -1 3 5 -3 6 5 23 19 38 14
15 25 31 25 36 0 5 5 6 10 3 6 -3 10 1 10 9 0 9 5 16 10 16 6 0 10 6 10 13 0
7 9 18 21 25 12 7 18 16 15 19 -3 3 10 22 29 42 19 20 35 42 35 49 0 7 5 10
10 7 6 -3 10 0 10 8 0 8 7 18 16 21 8 3 12 10 9 16 -3 5 1 10 10 10 9 0 14 4
10 9 -3 5 4 16 15 24 11 7 17 17 14 20 -4 4 1 9 10 13 9 3 16 10 16 15 0 5 8
17 18 27 9 11 26 32 37 47 11 16 25 34 32 40 7 7 9 16 5 20 -4 5 1 5 10 2 10
-3 17 -3 15 1 -4 12 42 82 58 88 8 4 15 11 15 18 0 6 14 25 30 43 17 18 30 37
30 42 0 6 7 11 16 11 8 0 12 5 9 10 -3 6 -1 10 6 10 7 0 10 3 7 6 -4 3 1 14
10 23 28 30 62 71 62 76 0 3 8 13 18 24 9 10 26 31 37 46 11 15 32 40 48 57
15 16 27 34 27 39 0 5 5 9 10 9 6 0 10 5 10 11 0 26 46 50 64 32 10 -10 46
-11 46 -1 0 5 5 6 10 3 6 -3 10 -1 10 5 0 6 4 9 8 6 5 -3 16 4 25 15 9 10 13
19 9 19 -4 0 -1 4 7 9 8 5 16 15 17 23 2 7 6 26 9 42 7 36 8 40 5 46 -1 3 -3
15 -6 27 -2 12 -5 28 -6 34 -3 13 -60 77 -68 77 -3 0 -7 1 -10 2 -19 7 -40 7
-40 -1 0 -5 -5 -9 -11 -9 -5 0 -7 5 -4 10 3 6 1 10 -4 10 -6 0 -11 -5 -11 -11z
m80 -90 c26 -27 30 -45 18 -100 -5 -25 -30 -43 -64 -45 -32 -3 -53 14 -60 49
-1 4 -2 8 -4 10 -6 7 -5 65 2 61 4 -3 8 0 8 7 0 16 36 46 56 46 8 0 28 -13 44
-28z"/>
<path d="M1735 2001 c-3 -6 -3 -11 1 -11 4 0 -5 -9 -19 -20 -20 -16 -25 -28
-22 -53 5 -52 31 -126 81 -232 16 -33 27 -63 26 -67 -1 -5 2 -8 7 -8 5 0 14
-13 21 -30 7 -16 16 -30 20 -30 4 0 11 -11 14 -25 4 -14 11 -25 16 -25 6 0 10
-4 10 -10 0 -5 8 -19 18 -30 9 -10 27 -31 40 -44 12 -14 22 -29 22 -34 0 -5
11 -15 25 -22 13 -7 27 -21 30 -29 3 -9 18 -25 35 -34 16 -10 30 -22 30 -28 0
-5 7 -9 15 -9 7 0 18 -6 22 -13 4 -8 17 -18 27 -24 20 -11 31 -43 15 -43 -5 0
-9 -7 -9 -16 0 -8 -4 -13 -9 -10 -4 3 -13 -6 -20 -20 -6 -15 -16 -22 -23 -18
-7 4 -8 3 -4 -4 4 -6 -2 -19 -14 -29 -11 -10 -20 -23 -20 -30 0 -7 -4 -13 -9
-13 -5 0 -13 -9 -16 -20 -3 -11 -13 -20 -21 -20 -8 0 -12 -4 -9 -10 3 -5 -1
-10 -10 -10 -9 0 -14 3 -12 8 3 4 -15 7 -39 8 -24 0 -41 -3 -38 -8 5 -7 -10
-12 -28 -9 -5 0 -8 -5 -8 -13 0 -8 -6 -16 -13 -19 -18 -7 -39 -82 -35 -127 4
-62 51 -129 91 -130 10 0 16 -4 13 -8 -2 -4 8 -8 24 -7 15 0 26 3 23 7 -2 5 3
8 12 8 30 0 82 78 79 118 -1 12 4 22 10 22 7 0 7 3 1 8 -13 9 -18 82 -5 82 6
0 10 6 10 13 0 6 19 32 42 57 23 25 41 46 40 48 -3 3 1 7 52 67 19 22 33 43
30 46 -7 12 31 4 39 -8 4 -7 14 -10 21 -7 8 3 17 1 20 -5 4 -6 13 -8 20 -5 8
3 17 1 21 -5 3 -6 17 -11 31 -11 13 0 24 -4 24 -10 0 -5 5 -10 11 -10 5 0 7 6
3 13 -6 8 -3 8 9 -2 9 -7 24 -11 32 -7 10 3 15 -1 15 -12 0 -13 2 -14 9 -3 5
7 13 11 19 7 6 -3 14 -1 18 5 5 8 3 9 -7 4 -8 -5 1 6 18 24 28 28 31 35 20 52
-13 21 -27 25 -27 8 0 -8 -5 -8 -15 1 -8 7 -22 10 -30 6 -8 -3 -15 -1 -15 3 0
5 -9 7 -20 4 -11 -3 -20 -1 -20 4 0 5 -6 10 -12 10 -44 3 -68 8 -68 15 0 4 -9
8 -20 8 -20 0 -20 1 -5 30 9 17 20 30 25 30 6 0 10 6 10 14 0 8 10 22 22 30
12 9 18 16 13 16 -6 0 -3 6 5 13 26 20 60 74 52 82 -4 5 -1 5 6 1 6 -4 12 -2
12 4 0 6 4 9 8 6 4 -2 8 4 9 14 1 11 -3 23 -9 26 -8 5 -9 1 -4 -11 6 -18 6
-18 -12 -2 -10 9 -22 14 -25 10 -4 -3 -7 0 -7 8 0 11 -2 11 -10 -1 -8 -13 -10
-13 -10 0 0 9 -6 6 -17 -9 -10 -13 -26 -31 -35 -39 -10 -9 -18 -22 -18 -30 0
-7 -4 -10 -10 -7 -5 3 -10 0 -10 -7 0 -7 -14 -29 -30 -48 -17 -19 -40 -46 -51
-60 -19 -21 -23 -22 -33 -9 -6 9 -17 14 -23 12 -7 -3 -13 2 -13 11 0 9 -6 15
-12 14 -7 -2 -12 3 -10 10 1 6 -6 12 -16 12 -10 0 -24 9 -32 19 -7 11 -17 18
-22 15 -4 -3 -8 2 -8 10 0 8 -9 18 -20 21 -11 3 -20 11 -20 16 0 15 -26 39
-34 32 -3 -4 -6 -1 -6 5 0 11 -18 36 -47 67 -7 8 -13 16 -13 20 0 6 -13 23
-42 55 -9 10 -14 21 -11 24 3 3 -4 17 -16 32 -11 14 -18 30 -15 35 3 5 1 9 -4
9 -9 0 -25 37 -23 53 1 4 -6 10 -14 13 -8 3 -12 10 -9 15 3 6 0 16 -6 24 -7 8
-9 15 -5 15 4 0 2 6 -4 13 -6 8 -12 22 -14 33 -2 10 -7 27 -11 36 -4 9 -9 25
-11 35 -2 10 -4 18 -5 18 -1 0 -3 8 -5 18 -5 25 -11 31 -20 18z m212 -1080
c12 10 16 10 24 -2 5 -8 9 -10 9 -6 0 12 31 -21 34 -36 1 -6 5 -17 9 -24 4 -6
3 -22 -2 -36 -5 -14 -7 -28 -4 -31 4 -3 -1 -6 -11 -6 -9 0 -19 -7 -22 -15 -9
-21 -46 -19 -72 5 -17 16 -22 32 -22 70 0 28 4 50 9 50 5 0 13 10 17 23 4 13
9 17 12 9 3 -10 7 -10 19 -1z"/>
<path d="M2760 1423 c-19 -8 -57 -17 -85 -19 -27 -1 -50 -4 -50 -5 0 0 -14 -2
-32 -3 -34 -2 -69 -27 -78 -57 -4 -11 -11 -17 -16 -14 -5 4 -9 1 -9 -4 0 -6 4
-11 9 -11 5 0 17 -7 25 -16 9 -8 16 -12 16 -7 0 4 27 8 59 8 36 0 57 -4 54
-10 -3 -5 0 -4 8 3 7 6 23 12 36 12 13 0 22 4 21 8 -2 5 13 23 32 41 19 19 28
30 20 26 -8 -5 -4 4 9 18 14 15 20 27 15 27 -5 0 -2 5 6 10 22 14 0 11 -40 -7z"/>
<path d="M2588 1173 c7 -3 16 -2 19 1 4 3 -2 6 -13 5 -11 0 -14 -3 -6 -6z"/>
</g>
</svg>
